<svg xmlns="http://www.w3.org/2000/svg" width="70.653" height="70.653" viewBox="0 0 70.653 70.653"><g transform="translate(-708 -4926)"><g transform="translate(708 4926)"><path d="M10.35,70.653H33.394V45.538h-8.28v-8.28h8.28V26.909a10.361,10.361,0,0,1,10.35-10.35h10.35v8.28h-8.28a4.144,4.144,0,0,0-4.14,4.14v8.28H53.72l-1.38,8.28H41.674V70.653H60.3A10.361,10.361,0,0,0,70.653,60.3V10.35A10.361,10.361,0,0,0,60.3,0H10.35A10.361,10.361,0,0,0,0,10.35V60.3A10.361,10.361,0,0,0,10.35,70.653ZM4.14,10.35a6.217,6.217,0,0,1,6.21-6.21H60.3a6.217,6.217,0,0,1,6.21,6.21V60.3a6.217,6.217,0,0,1-6.21,6.21H45.814V49.678H55.847l2.76-16.559H45.814v-4.14H58.233V12.419H43.744A14.506,14.506,0,0,0,29.255,26.909v6.21h-8.28V49.678h8.28V66.513H10.35A6.217,6.217,0,0,1,4.14,60.3Zm0,0"/></g></g></svg>