<svg xmlns="http://www.w3.org/2000/svg" width="70" height="70" viewBox="0 0 70 70"><path d="M51.051,0h-32.1A18.97,18.97,0,0,0,0,18.948v32.1A18.97,18.97,0,0,0,18.947,70h32.1A18.969,18.969,0,0,0,70,51.052v-32.1A18.97,18.97,0,0,0,51.051,0ZM65.9,51.052A14.861,14.861,0,0,1,51.051,65.9h-32.1A14.861,14.861,0,0,1,4.1,51.052v-32.1A14.861,14.861,0,0,1,18.947,4.1h32.1A14.861,14.861,0,0,1,65.9,18.948Zm0,0" transform="translate(0.001 0)" fill="#0c0010"/><path d="M135.144,116a19.14,19.14,0,1,0,19.14,19.14A19.162,19.162,0,0,0,135.144,116Zm0,34.177a15.036,15.036,0,1,1,15.036-15.036A15.053,15.053,0,0,1,135.144,150.181Zm0,0" transform="translate(-100.004 -100.207)" fill="#0c0010"/><path d="M363.632,66.285a5.656,5.656,0,1,0,5.656,5.656A5.662,5.662,0,0,0,363.632,66.285Zm0,7.208a1.552,1.552,0,1,1,1.552-1.552A1.554,1.554,0,0,1,363.632,73.493Zm0,0" transform="translate(-308.895 -57.285)" fill="#0c0010"/></svg>