<svg xmlns="http://www.w3.org/2000/svg" width="72" height="72.003" viewBox="0 0 72 72.003"><g transform="translate(-0.011)"><g transform="translate(0.011 0)"><path d="M70.16,53.107l-8.951-8.951a6.337,6.337,0,0,0-8.951,0l-4.069,4.069a4.8,4.8,0,0,1-6.781,0L23.773,30.575a4.792,4.792,0,0,1,0-6.781l4.069-4.069a6.326,6.326,0,0,0,0-8.953L18.891,1.852a6.335,6.335,0,0,0-8.944-.006L6.685,5.078a22.85,22.85,0,0,0,0,32.278L34.627,65.313a22.811,22.811,0,0,0,32.278,0l3.255-3.255A6.336,6.336,0,0,0,70.16,53.107ZM12.924,4.835a2.113,2.113,0,0,1,2.986,0l8.949,8.921a2.109,2.109,0,0,1,0,2.984l-1.492,1.492L11.439,6.306ZM37.611,62.33,9.669,34.372A18.549,18.549,0,0,1,8.5,9.339L20.4,21.232a9.006,9.006,0,0,0,.392,12.327L38.424,51.208h0a9.005,9.005,0,0,0,12.327.393L62.644,63.493A18.513,18.513,0,0,1,37.611,62.33Zm29.565-3.255-1.492,1.492L53.75,48.631l1.492-1.492a2.112,2.112,0,0,1,2.984,0l8.951,8.951A2.112,2.112,0,0,1,67.176,59.074Z" transform="translate(-0.011 0)"/></g></g></svg>