<svg xmlns="http://www.w3.org/2000/svg" width="574" height="593.22" viewBox="0 0 574 593.22"><g transform="translate(-780.626 -205.145)"><path d="M14704.847,2997.062c-12.633,15.872-30.783,34.807-44.844,49.9-17.164,18.424-17.709,8.778-52.283-28.939l58.064-63.335c46.461-50.678,31.473-50.678,77.928,0,12.99,14.168,26.1,28.211,39.082,42.379,46.342-50.528,46.3-34.245-.117-84.882q-19.482-21.253-38.965-42.5l13.455-14.492,6.084,6.63,5.977-6.524,13.066,14.427,19.1-21.055c33.1,34.783,65.664,70.559,98.172,106.02,9.01,9.829,35.746,38.38,41.262,44.144,14.418,15.066,16.891,19.589,7.428,31.034-5.584,6.752-15.322,15.915-29.217,31.07-13.477-14.7-41.258-46.381-47.393-52.552-12.223-12.293-14.381-5.854-24.816,2.631-5.85,6.334-13.611,15.818-25.191,28.451-46.459,50.679-31.473,50.679-77.928,0-12.99-14.167-25.881-28.228-38.865-42.4Zm78.107-171.492,15.9,17.347-15.9,17.347-15.906-17.347,15.906-17.347Zm-18.607,8.535,2.672,2.916-2.672,2.917-2.676-2.917Zm-.687,11.11,5.346,5.835-5.346,5.834-5.348-5.834Z" transform="translate(-13715.095 -2620.425)" fill="#fff"/><text transform="translate(860.626 610.8)" fill="#fff" font-size="91" font-family="SegoeUI-Bold, Segoe UI" font-weight="700"><tspan x="0" y="0">MEGA JR.</tspan></text><text transform="translate(859.625 724.071)" fill="#b73528" font-size="46" font-family="SegoeUI-Bold, Segoe UI" font-weight="700"><tspan x="0" y="0">Tem um problema?</tspan></text><text transform="translate(780.626 786.365)" fill="#b73528" font-size="46" font-family="SegoeUI-Bold, Segoe UI" font-weight="700"><tspan x="0" y="0">Nós temos mega soluções.</tspan></text></g></svg>